<?xml version="1.0" encoding="UTF-8" standalone="no"?>
<!-- Created with Inkscape (http://www.inkscape.org/) -->

<svg
   xmlns:dc="http://purl.org/dc/elements/1.1/"
   xmlns:cc="http://creativecommons.org/ns#"
   xmlns:rdf="http://www.w3.org/1999/02/22-rdf-syntax-ns#"
   xmlns:svg="http://www.w3.org/2000/svg"
   xmlns="http://www.w3.org/2000/svg"
   xmlns:sodipodi="http://sodipodi.sourceforge.net/DTD/sodipodi-0.dtd"
   xmlns:inkscape="http://www.inkscape.org/namespaces/inkscape"
   width="451.19238"
   height="456.62894"
   id="svg2"
   version="1.1"
   inkscape:version="0.48.3.1 r9886"
   sodipodi:docname="rosindex_logo.svg"
   inkscape:export-filename="/home/jbohren/versioned/rosindex.github.io/assets/rosindex_logo.png"
   inkscape:export-xdpi="102.13"
   inkscape:export-ydpi="102.13">
  <defs
     id="defs4" />
  <sodipodi:namedview
     id="base"
     pagecolor="#ffffff"
     bordercolor="#666666"
     borderopacity="1.0"
     inkscape:pageopacity="0.0"
     inkscape:pageshadow="2"
     inkscape:zoom="0.175"
     inkscape:cx="-1975.2254"
     inkscape:cy="-492.8723"
     inkscape:document-units="px"
     inkscape:current-layer="g7422"
     showgrid="false"
     inkscape:window-width="1362"
     inkscape:window-height="714"
     inkscape:window-x="0"
     inkscape:window-y="16"
     inkscape:window-maximized="0"
     showguides="true"
     inkscape:guide-bbox="true"
     inkscape:snap-bbox="true"
     inkscape:bbox-paths="true"
     inkscape:snap-global="false"
     fit-margin-top="20"
     fit-margin-left="20"
     fit-margin-right="20"
     fit-margin-bottom="20" />
  <metadata
     id="metadata7">
    <rdf:RDF>
      <cc:Work
         rdf:about="">
        <dc:format>image/svg+xml</dc:format>
        <dc:type
           rdf:resource="http://purl.org/dc/dcmitype/StillImage" />
        <dc:title></dc:title>
      </cc:Work>
    </rdf:RDF>
  </metadata>
  <g
     inkscape:label="Layer 1"
     inkscape:groupmode="layer"
     id="layer1"
     transform="translate(-146.45106,-297.86663)">
    <g
       id="g7422"
       transform="translate(53.180966,-179.03823)">
      <g
         style="fill:#e6e6e6"
         id="g7223-3-9-3-5-9"
         transform="matrix(0.61997049,0,0,0.61997049,61.123115,206.04741)">
        <path
           id="path39880-8-6-9-5-6"
           style="fill:#e6e6e6;fill-opacity:1;fill-rule:nonzero;stroke:none"
           d="m 205.29618,544.16545 c 0,26.09894 -20.47769,47.26054 -45.73308,47.26054 -25.25539,0 -45.73304,-21.1616 -45.73304,-47.26054 0,-26.09895 20.47765,-47.26059 45.73304,-47.26059 25.25539,0 45.73308,21.16164 45.73308,47.26059 z"
           inkscape:connector-curvature="0" />
        <path
           id="path39882-5-3-3-4-4"
           style="fill:#e6e6e6;fill-opacity:1;fill-rule:nonzero;stroke:none"
           d="m 205.29618,705.21934 c 0,26.09891 -20.47769,47.26055 -45.73308,47.26055 -25.25539,0 -45.73304,-21.16164 -45.73304,-47.26055 0,-26.09894 20.47765,-47.26058 45.73304,-47.26058 25.25539,0 45.73308,21.16164 45.73308,47.26058 z"
           inkscape:connector-curvature="0" />
        <path
           id="path39884-3-0-1-9-9"
           style="fill:#e6e6e6;fill-opacity:1;fill-rule:nonzero;stroke:none"
           d="m 205.29618,866.2732 c 0,26.09895 -20.47769,47.26059 -45.73308,47.26059 -25.25539,0 -45.73304,-21.16164 -45.73304,-47.26059 0,-26.0989 20.47765,-47.26054 45.73304,-47.26054 25.25539,0 45.73308,21.16164 45.73308,47.26054 z"
           inkscape:connector-curvature="0" />
        <path
           id="path39886-4-5-4-4-0"
           style="fill:#e6e6e6;fill-opacity:1;fill-rule:nonzero;stroke:none"
           d="m 364.87932,705.21934 c 0,26.09891 -20.47769,47.26055 -45.73308,47.26055 -25.2554,0 -45.73304,-21.16164 -45.73304,-47.26055 0,-26.09894 20.47764,-47.26058 45.73304,-47.26058 25.25539,0 45.73308,21.16164 45.73308,47.26058 z"
           inkscape:connector-curvature="0" />
        <path
           id="path39888-7-4-8-2-6"
           style="fill:#e6e6e6;fill-opacity:1;fill-rule:nonzero;stroke:none"
           d="m 364.87932,544.16545 c 0,26.09894 -20.47769,47.26054 -45.73308,47.26054 -25.2554,0 -45.73304,-21.1616 -45.73304,-47.26054 0,-26.09895 20.47764,-47.26059 45.73304,-47.26059 25.25539,0 45.73308,21.16164 45.73308,47.26059 z"
           inkscape:connector-curvature="0" />
        <path
           id="path39890-5-9-5-5-8"
           style="fill:#e6e6e6;fill-opacity:1;fill-rule:nonzero;stroke:none"
           d="m 524.46246,705.21934 c 0,26.09891 -20.47769,47.26055 -45.73304,47.26055 -25.25539,0 -45.73308,-21.16164 -45.73308,-47.26055 0,-26.09894 20.47769,-47.26058 45.73308,-47.26058 25.25535,0 45.73304,21.16164 45.73304,47.26058 z"
           inkscape:connector-curvature="0" />
        <path
           id="path39892-2-9-3-6-4"
           style="fill:#e6e6e6;fill-opacity:1;fill-rule:nonzero;stroke:none"
           d="m 524.46246,544.16545 c 0,26.09894 -20.47769,47.26054 -45.73304,47.26054 -25.25539,0 -45.73308,-21.1616 -45.73308,-47.26054 0,-26.09895 20.47769,-47.26059 45.73308,-47.26059 25.25535,0 45.73304,21.16164 45.73304,47.26059 z"
           inkscape:connector-curvature="0" />
        <path
           id="path39894-3-0-4-8-9"
           style="fill:#e6e6e6;fill-opacity:1;fill-rule:nonzero;stroke:none"
           d="m 524.46246,866.2732 c 0,26.09895 -20.47769,47.26059 -45.73304,47.26059 -25.25539,0 -45.73308,-21.16164 -45.73308,-47.26059 0,-26.0989 20.47769,-47.26054 45.73308,-47.26054 25.25535,0 45.73304,21.16164 45.73304,47.26054 z"
           inkscape:connector-curvature="0" />
        <path
           id="path39896-9-6-0-9-0"
           style="fill:#e6e6e6;fill-opacity:1;fill-rule:nonzero;stroke:none"
           d="m 364.87932,866.2732 c 0,26.09895 -20.47769,47.26059 -45.73308,47.26059 -25.2554,0 -45.73304,-21.16164 -45.73304,-47.26059 0,-26.0989 20.47764,-47.26054 45.73304,-47.26054 25.25539,0 45.73308,21.16164 45.73308,47.26054 z"
           inkscape:connector-curvature="0" />
      </g>
      <g
         style="fill:#cccccc"
         id="g7223-3-9-3-5"
         transform="matrix(0.71042331,0,0,0.71042331,46.463169,156.41418)">
        <path
           id="path39880-8-6-9-5"
           style="fill:#cccccc;fill-opacity:1;fill-rule:nonzero;stroke:none"
           d="m 205.29618,544.16545 c 0,26.09894 -20.47769,47.26054 -45.73308,47.26054 -25.25539,0 -45.73304,-21.1616 -45.73304,-47.26054 0,-26.09895 20.47765,-47.26059 45.73304,-47.26059 25.25539,0 45.73308,21.16164 45.73308,47.26059 z"
           inkscape:connector-curvature="0" />
        <path
           id="path39882-5-3-3-4"
           style="fill:#cccccc;fill-opacity:1;fill-rule:nonzero;stroke:none"
           d="m 205.29618,705.21934 c 0,26.09891 -20.47769,47.26055 -45.73308,47.26055 -25.25539,0 -45.73304,-21.16164 -45.73304,-47.26055 0,-26.09894 20.47765,-47.26058 45.73304,-47.26058 25.25539,0 45.73308,21.16164 45.73308,47.26058 z"
           inkscape:connector-curvature="0" />
        <path
           id="path39884-3-0-1-9"
           style="fill:#cccccc;fill-opacity:1;fill-rule:nonzero;stroke:none"
           d="m 205.29618,866.2732 c 0,26.09895 -20.47769,47.26059 -45.73308,47.26059 -25.25539,0 -45.73304,-21.16164 -45.73304,-47.26059 0,-26.0989 20.47765,-47.26054 45.73304,-47.26054 25.25539,0 45.73308,21.16164 45.73308,47.26054 z"
           inkscape:connector-curvature="0" />
        <path
           id="path39886-4-5-4-4"
           style="fill:#cccccc;fill-opacity:1;fill-rule:nonzero;stroke:none"
           d="m 364.87932,705.21934 c 0,26.09891 -20.47769,47.26055 -45.73308,47.26055 -25.2554,0 -45.73304,-21.16164 -45.73304,-47.26055 0,-26.09894 20.47764,-47.26058 45.73304,-47.26058 25.25539,0 45.73308,21.16164 45.73308,47.26058 z"
           inkscape:connector-curvature="0" />
        <path
           id="path39888-7-4-8-2"
           style="fill:#cccccc;fill-opacity:1;fill-rule:nonzero;stroke:none"
           d="m 364.87932,544.16545 c 0,26.09894 -20.47769,47.26054 -45.73308,47.26054 -25.2554,0 -45.73304,-21.1616 -45.73304,-47.26054 0,-26.09895 20.47764,-47.26059 45.73304,-47.26059 25.25539,0 45.73308,21.16164 45.73308,47.26059 z"
           inkscape:connector-curvature="0" />
        <path
           id="path39890-5-9-5-5"
           style="fill:#cccccc;fill-opacity:1;fill-rule:nonzero;stroke:none"
           d="m 524.46246,705.21934 c 0,26.09891 -20.47769,47.26055 -45.73304,47.26055 -25.25539,0 -45.73308,-21.16164 -45.73308,-47.26055 0,-26.09894 20.47769,-47.26058 45.73308,-47.26058 25.25535,0 45.73304,21.16164 45.73304,47.26058 z"
           inkscape:connector-curvature="0" />
        <path
           id="path39892-2-9-3-6"
           style="fill:#cccccc;fill-opacity:1;fill-rule:nonzero;stroke:none"
           d="m 524.46246,544.16545 c 0,26.09894 -20.47769,47.26054 -45.73304,47.26054 -25.25539,0 -45.73308,-21.1616 -45.73308,-47.26054 0,-26.09895 20.47769,-47.26059 45.73308,-47.26059 25.25535,0 45.73304,21.16164 45.73304,47.26059 z"
           inkscape:connector-curvature="0" />
        <path
           id="path39894-3-0-4-8"
           style="fill:#cccccc;fill-opacity:1;fill-rule:nonzero;stroke:none"
           d="m 524.46246,866.2732 c 0,26.09895 -20.47769,47.26059 -45.73304,47.26059 -25.25539,0 -45.73308,-21.16164 -45.73308,-47.26059 0,-26.0989 20.47769,-47.26054 45.73308,-47.26054 25.25535,0 45.73304,21.16164 45.73304,47.26054 z"
           inkscape:connector-curvature="0" />
        <path
           id="path39896-9-6-0-9"
           style="fill:#cccccc;fill-opacity:1;fill-rule:nonzero;stroke:none"
           d="m 364.87932,866.2732 c 0,26.09895 -20.47769,47.26059 -45.73308,47.26059 -25.2554,0 -45.73304,-21.16164 -45.73304,-47.26059 0,-26.0989 20.47764,-47.26054 45.73304,-47.26054 25.25539,0 45.73308,21.16164 45.73308,47.26054 z"
           inkscape:connector-curvature="0" />
      </g>
      <g
         style="fill:#999999"
         id="g7223-3-9"
         transform="matrix(0.84868019,0,0,0.84868019,23.950487,81.460147)">
        <path
           id="path39880-8-6"
           style="fill:#999999;fill-opacity:1;fill-rule:nonzero;stroke:none"
           d="m 205.29618,544.16545 c 0,26.09894 -20.47769,47.26054 -45.73308,47.26054 -25.25539,0 -45.73304,-21.1616 -45.73304,-47.26054 0,-26.09895 20.47765,-47.26059 45.73304,-47.26059 25.25539,0 45.73308,21.16164 45.73308,47.26059 z"
           inkscape:connector-curvature="0" />
        <path
           id="path39882-5-3"
           style="fill:#999999;fill-opacity:1;fill-rule:nonzero;stroke:none"
           d="m 205.29618,705.21934 c 0,26.09891 -20.47769,47.26055 -45.73308,47.26055 -25.25539,0 -45.73304,-21.16164 -45.73304,-47.26055 0,-26.09894 20.47765,-47.26058 45.73304,-47.26058 25.25539,0 45.73308,21.16164 45.73308,47.26058 z"
           inkscape:connector-curvature="0" />
        <path
           id="path39884-3-0"
           style="fill:#999999;fill-opacity:1;fill-rule:nonzero;stroke:none"
           d="m 205.29618,866.2732 c 0,26.09895 -20.47769,47.26059 -45.73308,47.26059 -25.25539,0 -45.73304,-21.16164 -45.73304,-47.26059 0,-26.0989 20.47765,-47.26054 45.73304,-47.26054 25.25539,0 45.73308,21.16164 45.73308,47.26054 z"
           inkscape:connector-curvature="0" />
        <path
           id="path39886-4-5"
           style="fill:#999999;fill-opacity:1;fill-rule:nonzero;stroke:none"
           d="m 364.87932,705.21934 c 0,26.09891 -20.47769,47.26055 -45.73308,47.26055 -25.2554,0 -45.73304,-21.16164 -45.73304,-47.26055 0,-26.09894 20.47764,-47.26058 45.73304,-47.26058 25.25539,0 45.73308,21.16164 45.73308,47.26058 z"
           inkscape:connector-curvature="0" />
        <path
           id="path39888-7-4"
           style="fill:#999999;fill-opacity:1;fill-rule:nonzero;stroke:none"
           d="m 364.87932,544.16545 c 0,26.09894 -20.47769,47.26054 -45.73308,47.26054 -25.2554,0 -45.73304,-21.1616 -45.73304,-47.26054 0,-26.09895 20.47764,-47.26059 45.73304,-47.26059 25.25539,0 45.73308,21.16164 45.73308,47.26059 z"
           inkscape:connector-curvature="0" />
        <path
           id="path39890-5-9"
           style="fill:#999999;fill-opacity:1;fill-rule:nonzero;stroke:none"
           d="m 524.46246,705.21934 c 0,26.09891 -20.47769,47.26055 -45.73304,47.26055 -25.25539,0 -45.73308,-21.16164 -45.73308,-47.26055 0,-26.09894 20.47769,-47.26058 45.73308,-47.26058 25.25535,0 45.73304,21.16164 45.73304,47.26058 z"
           inkscape:connector-curvature="0" />
        <path
           id="path39892-2-9"
           style="fill:#999999;fill-opacity:1;fill-rule:nonzero;stroke:none"
           d="m 524.46246,544.16545 c 0,26.09894 -20.47769,47.26054 -45.73304,47.26054 -25.25539,0 -45.73308,-21.1616 -45.73308,-47.26054 0,-26.09895 20.47769,-47.26059 45.73308,-47.26059 25.25535,0 45.73304,21.16164 45.73304,47.26059 z"
           inkscape:connector-curvature="0" />
        <path
           id="path39894-3-0"
           style="fill:#999999;fill-opacity:1;fill-rule:nonzero;stroke:none"
           d="m 524.46246,866.2732 c 0,26.09895 -20.47769,47.26059 -45.73304,47.26059 -25.25539,0 -45.73308,-21.16164 -45.73308,-47.26059 0,-26.0989 20.47769,-47.26054 45.73308,-47.26054 25.25535,0 45.73304,21.16164 45.73304,47.26054 z"
           inkscape:connector-curvature="0" />
        <path
           id="path39896-9-6"
           style="fill:#999999;fill-opacity:1;fill-rule:nonzero;stroke:none"
           d="m 364.87932,866.2732 c 0,26.09895 -20.47769,47.26059 -45.73308,47.26059 -25.2554,0 -45.73304,-21.16164 -45.73304,-47.26059 0,-26.0989 20.47764,-47.26054 45.73304,-47.26054 25.25539,0 45.73308,21.16164 45.73308,47.26054 z"
           inkscape:connector-curvature="0" />
      </g>
      <g
         id="g7223">
        <path
           id="path39880"
           style="fill:#4d4d4d;fill-opacity:1;fill-rule:nonzero;stroke:none"
           d="m 205.29618,544.16545 c 0,26.09894 -20.47769,47.26054 -45.73308,47.26054 -25.25539,0 -45.73304,-21.1616 -45.73304,-47.26054 0,-26.09895 20.47765,-47.26059 45.73304,-47.26059 25.25539,0 45.73308,21.16164 45.73308,47.26059 z"
           inkscape:connector-curvature="0" />
        <path
           id="path39882"
           style="fill:#4d4d4d;fill-opacity:1;fill-rule:nonzero;stroke:none"
           d="m 205.29618,705.21934 c 0,26.09891 -20.47769,47.26055 -45.73308,47.26055 -25.25539,0 -45.73304,-21.16164 -45.73304,-47.26055 0,-26.09894 20.47765,-47.26058 45.73304,-47.26058 25.25539,0 45.73308,21.16164 45.73308,47.26058 z"
           inkscape:connector-curvature="0" />
        <path
           id="path39884"
           style="fill:#4d4d4d;fill-opacity:1;fill-rule:nonzero;stroke:none"
           d="m 205.29618,866.2732 c 0,26.09895 -20.47769,47.26059 -45.73308,47.26059 -25.25539,0 -45.73304,-21.16164 -45.73304,-47.26059 0,-26.0989 20.47765,-47.26054 45.73304,-47.26054 25.25539,0 45.73308,21.16164 45.73308,47.26054 z"
           inkscape:connector-curvature="0" />
        <path
           id="path39886"
           style="fill:#4d4d4d;fill-opacity:1;fill-rule:nonzero;stroke:none"
           d="m 364.87932,705.21934 c 0,26.09891 -20.47769,47.26055 -45.73308,47.26055 -25.2554,0 -45.73304,-21.16164 -45.73304,-47.26055 0,-26.09894 20.47764,-47.26058 45.73304,-47.26058 25.25539,0 45.73308,21.16164 45.73308,47.26058 z"
           inkscape:connector-curvature="0" />
        <path
           id="path39888"
           style="fill:#4d4d4d;fill-opacity:1;fill-rule:nonzero;stroke:none"
           d="m 364.87932,544.16545 c 0,26.09894 -20.47769,47.26054 -45.73308,47.26054 -25.2554,0 -45.73304,-21.1616 -45.73304,-47.26054 0,-26.09895 20.47764,-47.26059 45.73304,-47.26059 25.25539,0 45.73308,21.16164 45.73308,47.26059 z"
           inkscape:connector-curvature="0" />
        <path
           id="path39890"
           style="fill:#4d4d4d;fill-opacity:1;fill-rule:nonzero;stroke:none"
           d="m 524.46246,705.21934 c 0,26.09891 -20.47769,47.26055 -45.73304,47.26055 -25.25539,0 -45.73308,-21.16164 -45.73308,-47.26055 0,-26.09894 20.47769,-47.26058 45.73308,-47.26058 25.25535,0 45.73304,21.16164 45.73304,47.26058 z"
           inkscape:connector-curvature="0" />
        <path
           id="path39892"
           style="fill:#4d4d4d;fill-opacity:1;fill-rule:nonzero;stroke:none"
           d="m 524.46246,544.16545 c 0,26.09894 -20.47769,47.26054 -45.73304,47.26054 -25.25539,0 -45.73308,-21.1616 -45.73308,-47.26054 0,-26.09895 20.47769,-47.26059 45.73308,-47.26059 25.25535,0 45.73304,21.16164 45.73304,47.26059 z"
           inkscape:connector-curvature="0" />
        <path
           id="path39894"
           style="fill:#4d4d4d;fill-opacity:1;fill-rule:nonzero;stroke:none"
           d="m 524.46246,866.2732 c 0,26.09895 -20.47769,47.26059 -45.73304,47.26059 -25.25539,0 -45.73308,-21.16164 -45.73308,-47.26059 0,-26.0989 20.47769,-47.26054 45.73308,-47.26054 25.25535,0 45.73304,21.16164 45.73304,47.26054 z"
           inkscape:connector-curvature="0" />
        <path
           id="path39896"
           style="fill:#4d4d4d;fill-opacity:1;fill-rule:nonzero;stroke:none"
           d="m 364.87932,866.2732 c 0,26.09895 -20.47769,47.26059 -45.73308,47.26059 -25.2554,0 -45.73304,-21.16164 -45.73304,-47.26059 0,-26.0989 20.47764,-47.26054 45.73304,-47.26054 25.25539,0 45.73308,21.16164 45.73308,47.26054 z"
           inkscape:connector-curvature="0" />
      </g>
    </g>
  </g>
</svg>
